<svg xmlns="http://www.w3.org/2000/svg" width="135" height="120" viewBox="0 0 135 120" fill="none"><path d="M132.52 106.489H118.762V49.5299C118.762 44.8246 114.937 40.9998 110.232 40.9998H104.26V33.4327H100.958V40.9998H86.3197L81.7519 35.4689V24.6824C81.7519 24.6274 81.7519 24.5448 81.7519 24.4898C79.9358 9.90598 71.3781 2.9718 68.6265 1.07315C68.3238 0.577849 67.7734 0.275166 67.2231 0.275166C67.1956 0.275166 67.1406 0.275166 67.113 0.275166C67.058 0.275166 67.0305 0.275166 66.9755 0.275166C66.9204 0.275166 66.0399 0.275166 65.5721 1.04563C62.848 2.91676 54.2353 9.87847 52.4192 24.4623C52.4192 24.5173 52.4192 24.5999 52.4192 24.6549V35.4414L47.8239 40.9998H33.185V21.518H29.8831V40.9998H23.9395C19.2341 40.9998 15.4093 44.8246 15.4093 49.5299V106.489H1.651C0.742949 106.489 0 107.232 0 108.14V111.47C0 116.175 3.82481 120 8.53015 120H125.641C130.346 120 134.171 116.175 134.171 111.47V108.14C134.171 107.232 133.428 106.489 132.52 106.489ZM130.869 111.47C130.869 114.359 128.53 116.698 125.641 116.698H8.53015C5.64091 116.698 3.30199 114.359 3.30199 111.47V109.791H52.2816V112.626C52.2816 113.038 52.4192 113.396 52.6668 113.671C52.9695 114.029 53.4373 114.277 53.9326 114.277H79.9633C80.4861 114.277 80.9264 114.056 81.2291 113.671C81.4767 113.396 81.6143 113.011 81.6143 112.626V109.791H130.869V111.47ZM18.7113 49.5299C18.7113 46.6407 21.0502 44.3018 23.9395 44.3018H29.9106V47.8514H23.4442C22.5361 47.8514 21.7932 48.5944 21.7932 49.5024V100.491C21.7932 101.399 22.5361 102.142 23.4442 102.142H110.727C111.635 102.142 112.378 101.399 112.378 100.491V49.4749C112.378 48.5668 111.635 47.8239 110.727 47.8239H104.26V44.3018H110.232C113.121 44.3018 115.46 46.6407 115.46 49.5299V106.489H79.9633C79.0553 106.489 78.3123 107.232 78.3123 108.14V110.975H55.5836V108.14C55.5836 107.232 54.8406 106.489 53.9326 106.489H18.7113V49.5299ZM52.3917 40.6696V56.3816L44.7145 62.7379V49.9977L45.1273 49.5024L46.4756 47.8514L49.3923 44.3018L50.7407 42.6508L52.3917 40.6696ZM67.0855 4.01743C69.7822 5.94359 76.8539 12.1073 78.4774 24.765V55.0332H71.4882V35.6615C71.4882 34.7535 70.7452 34.0105 69.8372 34.0105H64.3339C63.4258 34.0105 62.6829 34.7535 62.6829 35.6615V55.0608H55.6936V24.7925C57.3171 12.1348 64.3889 5.94359 67.0855 4.01743ZM83.4029 42.6508L84.7512 44.3018L87.668 47.8514L89.0163 49.5024L89.429 49.9977V62.7379L81.7519 56.3816V40.6696L83.4029 42.6508ZM100.958 44.3018V47.8514H91.9606L89.0438 44.3018H100.958ZM109.076 86.4297C107.783 85.3291 106.187 84.6136 104.481 84.366C102.94 84.1458 101.426 84.3385 100.023 84.8613C99.1149 82.7975 97.6015 81.0365 95.6753 79.7982C93.0887 78.1472 90.0069 77.5969 87.0076 78.2848C85.6317 78.5875 84.3385 79.1378 83.2378 79.8808C82.1371 78.2022 80.4861 76.9915 78.7251 76.2761C78.3398 76.111 77.9546 76.0009 77.5694 75.8908L76.8539 72.6164L75.4781 66.3701L72.2587 67.0855L74.5976 77.6244C74.7352 78.2848 75.258 78.7801 75.9184 78.8902C77.4043 79.1378 79.6606 80.1009 80.7338 82.1096C78.5049 84.7787 77.4868 88.3834 78.2848 92.0431L81.064 91.4377L81.5318 91.3277C81.064 89.1814 81.4492 86.98 82.6049 85.1364C82.715 84.9438 82.8526 84.7787 82.9901 84.5861C83.4304 84.0083 83.9257 83.4854 84.5036 83.0452C85.4391 82.3022 86.5673 81.7794 87.7505 81.5318C91.7955 80.6237 95.8129 82.8801 97.2162 86.6498C96.7209 87.0901 96.2807 87.5854 95.8954 88.1357C95.0699 89.2914 94.5196 90.6398 94.327 92.0981L97.6015 92.5384C97.8216 91.025 98.5921 89.6767 99.8303 88.7686C101.041 87.8331 102.554 87.4478 104.068 87.668C107.205 88.1082 109.379 90.9975 108.966 94.1344L109.131 94.1619V98.8672H25.0952V94.1069L25.2603 94.0793C24.82 90.9424 27.0213 88.0532 30.1582 87.6129C33.2951 87.1727 36.1844 89.374 36.6246 92.5109L39.8991 92.0706C39.7065 90.6122 39.1562 89.2914 38.3857 88.1633C37.9454 87.5304 37.4226 86.9525 36.8172 86.4297C38.3031 82.77 42.238 80.5962 46.2279 81.4767C47.4662 81.7519 48.5393 82.2747 49.4749 83.0177C50.0527 83.4579 50.548 83.9807 50.9883 84.5586C52.3917 86.4297 52.997 88.8512 52.4467 91.3002L55.6936 92.0156C56.5191 88.3834 55.4735 84.7512 53.2447 82.0821C54.2903 80.0459 56.5467 79.1103 58.0601 78.8626C58.7205 78.7526 59.2433 78.2573 59.3809 77.5969L61.7198 67.058L58.5003 66.3426L57.1245 72.5889L56.4091 75.8633C56.0238 75.9734 55.6386 76.111 55.2534 76.2486C53.4923 76.964 51.8413 78.1747 50.7407 79.8532C49.6125 79.1103 48.3467 78.56 46.9709 78.2573C43.9716 77.5969 40.8897 78.1197 38.3031 79.7707C36.377 80.9814 34.8911 82.715 33.983 84.7512C32.6622 84.2834 31.2314 84.1183 29.773 84.3385C28.0119 84.5861 26.4435 85.3291 25.1777 86.4022V51.1259H29.9931V58.4178H33.2951V51.1259H41.4951V66.2325C41.4951 66.8654 41.8528 67.4432 42.4582 67.7184C42.6783 67.8285 42.9259 67.8835 43.1461 67.8835C43.5313 67.8835 43.889 67.7459 44.1917 67.4983L55.2259 58.3352H58.0326L56.7668 62.5453C56.6292 63.0406 56.7118 63.5909 57.0144 64.0037C57.3171 64.4164 57.8124 64.6641 58.3352 64.6641H62.7104V66.2875C62.7104 67.1956 63.4533 67.9385 64.3614 67.9385H69.8647C70.7728 67.9385 71.5157 67.1956 71.5157 66.2875V64.6641H75.8908C76.7989 64.6641 77.5418 63.9211 77.5418 63.0131C77.5418 62.7929 77.5143 62.6003 77.4318 62.4077L76.221 58.3077H78.9727L90.0069 67.4708C90.3096 67.7184 90.6948 67.856 91.0525 67.856C91.3002 67.856 91.5203 67.801 91.7404 67.6909C92.3183 67.4157 92.7035 66.8379 92.7035 66.205V51.0984H100.903V61.4446H104.205V51.0984H109.021V86.4297H109.076ZM65.9849 37.3125H68.1862V64.6641H65.9849V37.3125ZM73.6345 61.3896H71.4882V58.3628H72.7264L73.6345 61.3896ZM62.6829 61.3896H60.5366L61.4446 58.3628H62.6829V61.3896ZM42.2105 47.8239H33.2126V44.3018H45.1273L42.2105 47.8239Z" fill="#0FB874"></path><path d="M67.0855 29.2227C71.4332 29.2227 74.9828 25.673 74.9828 21.3254C74.9828 16.9778 71.4332 13.4281 67.0855 13.4281C62.7379 13.4281 59.1883 16.9778 59.1883 21.3254C59.1883 25.673 62.7379 29.2227 67.0855 29.2227ZM67.0855 16.7576C69.6171 16.7576 71.6808 18.8214 71.6808 21.3529C71.6808 23.8844 69.6171 25.9482 67.0855 25.9482C64.554 25.9482 62.4903 23.8844 62.4903 21.3529C62.4903 18.8214 64.554 16.7576 67.0855 16.7576Z" fill="#0FB874"></path><path d="M33.2126 63.701H29.9106V68.9842H33.2126V63.701Z" fill="#0FB874"></path><path d="M104.26 66.7553H100.958V72.0385H104.26V66.7553Z" fill="#0FB874"></path><path d="M104.26 77.5969H100.958V82.8801H104.26V77.5969Z" fill="#0FB874"></path><path d="M92.8136 0H89.5116V28.0945H92.8136V0Z" fill="#0FB874"></path><path d="M92.8136 33.3777H89.5116V38.6609H92.8136V33.3777Z" fill="#0FB874"></path></svg>