<svg xmlns="http://www.w3.org/2000/svg" width="93" height="110" viewBox="0 0 93 110" fill="none"><path d="M24.2086 59.5422C24.4022 59.6386 24.6201 59.6867 24.8138 59.6867C25.1527 59.6867 25.4674 59.5663 25.7337 59.3494L35.4898 51.2771H37.9833L36.8697 54.988C36.7486 55.4217 36.8212 55.9036 37.0875 56.2651C37.3538 56.6265 37.7896 56.8434 38.2496 56.8434H39.46C39.4116 56.8916 39.3389 56.9639 39.2905 57.0361C39.1453 57.2289 35.9982 61.8795 35.9982 66.7711C35.9982 71.8072 44.0838 78.7711 45.0037 79.5663C45.27 79.7831 45.609 79.9036 45.9479 79.9036H46.0689C46.4078 79.9036 46.7468 79.7831 47.0131 79.5663C47.933 78.7952 56.0187 71.8072 56.0187 66.7711C56.0187 61.8795 52.8473 57.2289 52.7263 57.0361C52.6779 56.9639 52.6295 56.9157 52.5568 56.8434H53.7673C54.5661 56.8434 55.2198 56.1928 55.2198 55.3976C55.2198 55.2048 55.1956 55.0361 55.1229 54.8675L54.0335 51.2771H56.527L66.2831 59.3494C66.5494 59.5663 66.8883 59.6867 67.203 59.6867C67.4209 59.6867 67.6146 59.6386 67.8082 59.5422C68.3166 59.3012 68.6555 58.7952 68.6555 58.241V43.4217C68.6555 43.0843 68.5345 42.7711 68.3166 42.506L58.9479 31.1807V21.6867C58.9479 21.6386 58.9479 21.5663 58.9479 21.5181C57.3501 8.6988 49.797 2.60241 47.352 0.939759C47.0857 0.506024 46.6015 0.240964 46.1173 0.240964C46.0931 0.240964 46.0447 0.240964 46.0205 0.240964C45.9721 0.240964 45.9479 0.240964 45.8995 0.240964C45.851 0.240964 45.0764 0.240964 44.6648 0.915663C42.244 2.55422 34.6667 8.6747 33.0447 21.494C33.0447 21.5422 33.0447 21.6145 33.0447 21.6627V31.1325L23.676 42.4578C23.4581 42.7229 23.3371 43.0361 23.3371 43.3735V58.1928C23.3613 58.7952 23.7002 59.3012 24.2086 59.5422ZM26.2663 43.9277L33.0447 35.7349V49.5663L26.2663 55.1807V43.9277ZM46.0205 3.51807C48.3929 5.20482 54.663 10.6506 56.0913 21.7831V48.3855H49.8939V31.3253C49.8939 30.5301 49.2402 29.8795 48.4414 29.8795H43.5754C42.7766 29.8795 42.1229 30.5301 42.1229 31.3253V48.3855H35.9255V21.7831C37.378 10.6506 43.6481 5.20482 46.0205 3.51807ZM65.7747 55.1566L58.9963 49.5422V35.7108L65.7747 43.9036V55.1566ZM51.8306 53.9518H49.9181V51.2771H51.0317L51.8306 53.9518ZM46.9889 56.506C46.7952 56.5783 46.6015 56.6988 46.4563 56.8434H45.5605C45.4153 56.6988 45.2216 56.5783 45.028 56.506V32.7711H46.9889V56.506ZM41.0335 51.2771H42.1471V53.9518H40.2347L41.0335 51.2771ZM45.0764 59.7349H46.9646C48.1267 61.7108 48.6592 63.3735 48.5866 64.7952C48.514 66.1928 47.3762 67.3012 46.0931 68.5783C46.0689 68.6024 46.0689 68.6024 46.0447 68.6265C44.8101 67.3976 43.527 65.759 43.4544 64.7952C43.3818 63.3735 43.9144 61.7108 45.0764 59.7349ZM53.1378 66.7952C53.1378 69.3253 49.095 73.8554 46.0205 76.6024C42.9702 73.8313 38.9032 69.3253 38.9032 66.7952C38.9032 63.7349 40.5494 60.6024 41.2998 59.3012H41.9777C41.1304 60.9398 40.4283 62.9157 40.5494 64.9398C40.6946 67.8554 44.3985 71.1084 45.149 71.7349C45.73 72.241 46.6257 72.1687 47.1583 71.6145C47.473 71.3012 47.7877 70.9639 48.1267 70.6265C49.6276 69.1325 51.3464 67.4699 51.4916 64.9398C51.6127 62.9157 50.9106 60.9398 50.0633 59.3012H50.7412C51.4916 60.6024 53.1378 63.7108 53.1378 66.7952Z" fill="#C774CE"></path><path d="M46.0205 25.6627C49.8455 25.6627 52.9684 22.5542 52.9684 18.747C52.9684 14.9398 49.8455 11.8313 46.0205 11.8313C42.1956 11.8313 39.0726 14.9398 39.0726 18.747C39.0726 22.5542 42.1713 25.6627 46.0205 25.6627ZM46.0205 14.6988C48.2477 14.6988 50.0633 16.506 50.0633 18.7229C50.0633 20.9398 48.2477 22.747 46.0205 22.747C43.7933 22.747 41.9777 20.9398 41.9777 18.7229C41.9777 16.5301 43.7933 14.6988 46.0205 14.6988Z" fill="#C774CE"></path><path d="M16.0987 18.9157H13.1937V51.3494H16.0987V18.9157Z" fill="#C774CE"></path><path d="M16.0987 56H13.1937V60.6265H16.0987V56Z" fill="#C774CE"></path><path d="M78.8473 29.3735H75.9423V54.0241H78.8473V29.3735Z" fill="#C774CE"></path><path d="M78.8473 58.6988H75.9423V63.3253H78.8473V58.6988Z" fill="#C774CE"></path><path d="M78.8473 68.2169H75.9423V72.8434H78.8473V68.2169Z" fill="#C774CE"></path><path d="M68.7524 0H65.8473V24.6988H68.7524V0Z" fill="#C774CE"></path><path d="M68.7524 29.3494H65.8473V33.9759H68.7524V29.3494Z" fill="#C774CE"></path><path d="M46.0205 100.94C43.527 98.3133 40.0652 96.7711 36.3613 96.7711V99.6627C39.4116 99.6627 42.2924 101.012 44.2291 103.301C43.0671 105.253 42.4134 107.518 42.4134 109.952H45.3185C45.3185 104.289 49.9665 99.6627 55.6555 99.6627V96.7711C51.879 96.7711 48.4414 98.3615 46.0205 100.94Z" fill="#C774CE"></path><path d="M34.7635 74.5542C34.7635 85.8795 27.5252 87.5422 27.2104 87.5904L27.2347 87.7349C25.7095 86.6988 23.9181 86 21.9814 85.7349C15.1304 84.7711 8.76351 89.5422 7.79516 96.3615C7.64991 97.3735 7.6257 98.4096 7.74675 99.3976L7.43203 98.6988C2.92924 100.627 0 105.036 0 109.952H2.90503C2.90503 106.361 4.96276 103.108 8.1825 101.542C8.93297 104.12 10.4823 106.434 12.7095 108.072L14.4525 105.759C11.6443 103.663 10.1918 100.193 10.7002 96.747C11.4507 91.494 16.3408 87.8313 21.5941 88.5783C26.8715 89.3253 30.5512 94.1928 29.8008 99.4217L32.6816 99.8313C33.2142 96.0482 31.9795 92.4337 29.6313 89.7831C30.5512 89.3735 31.7132 88.6747 32.8753 87.6145C35.0782 85.5663 37.6928 81.6627 37.6928 74.5301H34.7635V74.5542Z" fill="#C774CE"></path><path d="M84.5848 98.6988L84.2701 99.3976C84.3669 98.3855 84.3669 97.3735 84.2216 96.3615C83.2533 89.5422 76.8864 84.7711 70.0354 85.7349C68.0745 86 66.3073 86.7229 64.7822 87.759L64.8064 87.6145C64.7337 87.5904 57.2775 86.0241 57.2775 74.5783H54.3725C54.3725 81.6868 56.987 85.6145 59.19 87.6627C60.352 88.7229 61.514 89.3976 62.4339 89.8313C60.0615 92.4819 58.8268 96.0964 59.3836 99.8795L62.2645 99.4699C61.514 94.2169 65.1937 89.3494 70.4712 88.6265C75.7486 87.8795 80.6388 91.5422 81.365 96.7952C81.8492 100.265 80.4209 103.711 77.6127 105.807L79.3557 108.12C81.5829 106.458 83.1323 104.145 83.8827 101.59C87.1025 103.157 89.1602 106.41 89.1602 110H92.0652C92.041 105.036 89.1118 100.627 84.5848 98.6988Z" fill="#C774CE"></path></svg>