<svg xmlns="http://www.w3.org/2000/svg" width="136" height="110" viewBox="0 0 136 110" fill="none"><path d="M45.759 59.5422C45.9518 59.6386 46.1687 59.6867 46.3615 59.6867C46.6988 59.6867 47.0121 59.5663 47.2771 59.3494L56.988 51.2771H59.4699L58.3615 54.988C58.241 55.4217 58.3133 55.9036 58.5783 56.2651C58.8434 56.6265 59.2771 56.8434 59.7349 56.8434H60.9398C60.8916 56.8916 60.8193 56.9639 60.7711 57.0361C60.6265 57.2289 57.494 61.8795 57.494 66.7711C57.494 71.8072 65.5422 78.7711 66.4578 79.5663C66.7229 79.7831 67.0602 79.9036 67.3976 79.9036H67.5181C67.8554 79.9036 68.1928 79.7831 68.4578 79.5663C69.3735 78.7952 77.4217 71.8072 77.4217 66.7711C77.4217 61.8795 74.2651 57.2289 74.1446 57.0361C74.0964 56.9639 74.0482 56.9157 73.9759 56.8434H75.1807C75.9759 56.8434 76.6265 56.1928 76.6265 55.3976C76.6265 55.2048 76.6024 55.0361 76.5301 54.8675L75.4458 51.2771H77.9277L87.6386 59.3494C87.9036 59.5663 88.241 59.6867 88.5542 59.6867C88.7711 59.6867 88.9639 59.6386 89.1566 59.5422C89.6627 59.3012 90 58.7952 90 58.241V43.4217C90 43.0843 89.8795 42.7711 89.6627 42.506L80.3373 31.1807V21.6867C80.3373 21.6386 80.3373 21.5663 80.3373 21.5181C78.747 8.6988 71.2289 2.60241 68.7952 0.939759C68.5301 0.506024 68.0482 0.240964 67.5663 0.240964C67.5422 0.240964 67.494 0.240964 67.4699 0.240964C67.4217 0.240964 67.3976 0.240964 67.3494 0.240964C67.3012 0.240964 66.5301 0.240964 66.1205 0.915663C63.7108 2.55422 56.1687 8.6747 54.5542 21.494C54.5542 21.5422 54.5542 21.6145 54.5542 21.6627V31.1325L45.2289 42.4578C45.0121 42.7229 44.8916 43.0361 44.8916 43.3735V58.1928C44.9157 58.7952 45.253 59.3012 45.759 59.5422ZM80.3855 35.7108L87.1325 43.9036V55.1325L80.3855 49.5181V35.7108ZM74.5542 66.7952C74.5542 69.3253 70.5301 73.8554 67.4699 76.6024C64.4337 73.8313 60.3855 69.3253 60.3855 66.7952C60.3855 63.7349 62.0241 60.6024 62.7711 59.3012H63.4458C62.6024 60.9398 61.9036 62.9157 62.0241 64.9398C62.1687 67.8554 65.8554 71.1084 66.6024 71.7349C67.1807 72.241 68.0723 72.1687 68.6024 71.6145C68.9157 71.3012 69.2289 70.9639 69.5663 70.6265C71.0602 69.1325 72.7711 67.4699 72.9157 64.9398C73.0361 62.9157 72.3374 60.9398 71.494 59.3012H72.1687C72.9157 60.6024 74.5542 63.7108 74.5542 66.7952ZM61.7108 53.9518L62.506 51.2771H63.6145V53.9518H61.7108ZM66.5301 59.7349H68.4096C69.5663 61.7108 70.0964 63.3735 70.0241 64.7952C69.9518 66.1928 68.8193 67.3012 67.5422 68.5783C67.5181 68.6024 67.5181 68.6024 67.494 68.6265C66.2651 67.3976 64.988 65.759 64.9157 64.7952C64.8434 63.3735 65.3735 61.7108 66.5301 59.7349ZM66.506 56.506V32.7711H68.4578V56.4819C68.2651 56.5542 68.0723 56.6747 67.9277 56.8193H67.0361C66.8675 56.6747 66.6988 56.5783 66.506 56.506ZM71.3494 53.9518V51.2771H72.4578L73.253 53.9518H71.3494ZM57.4699 39.3494V21.7831C58.8916 10.6506 65.1325 5.20482 67.494 3.51807C69.8554 5.20482 76.0964 10.6506 77.5181 21.7831V48.3855H71.3253V31.3253C71.3253 30.5301 70.6747 29.8795 69.8795 29.8795H65.0361C64.241 29.8795 63.5904 30.5301 63.5904 31.3253V48.3855H57.4458V39.3494H57.4699ZM47.8072 43.9277L54.5542 35.7349V49.5663L47.8072 55.1807V43.9277Z" fill="#446BD0"></path><path d="M67.4699 25.6627C71.2771 25.6627 74.3855 22.5542 74.3855 18.747C74.3855 14.9398 71.3012 11.8072 67.4699 11.8072C63.6627 11.8072 60.5542 14.9157 60.5542 18.7229C60.5542 22.5301 63.6627 25.6627 67.4699 25.6627ZM67.4699 14.6988C69.6868 14.6988 71.494 16.506 71.494 18.7229C71.494 20.9398 69.6868 22.747 67.4699 22.747C65.253 22.747 63.4458 20.9398 63.4458 18.7229C63.4458 16.506 65.253 14.6988 67.4699 14.6988Z" fill="#446BD0"></path><path d="M36.9639 18.9157H34.0723V51.3494H36.9639V18.9157Z" fill="#446BD0"></path><path d="M36.9639 56H34.0723V60.6265H36.9639V56Z" fill="#446BD0"></path><path d="M100.145 29.3735H97.253V54.0241H100.145V29.3735Z" fill="#446BD0"></path><path d="M100.145 58.6988H97.253V63.3253H100.145V58.6988Z" fill="#446BD0"></path><path d="M100.145 68.2169H97.253V72.8434H100.145V68.2169Z" fill="#446BD0"></path><path d="M90.0964 0H87.2048V24.6988H90.0964V0Z" fill="#446BD0"></path><path d="M90.0964 29.3494H87.2048V33.9759H90.0964V29.3494Z" fill="#446BD0"></path><path d="M67.4699 100.94C64.988 98.3133 61.5422 96.7711 57.8554 96.7711V99.6627C60.8916 99.6627 63.759 101.012 65.6868 103.301C64.5301 105.253 63.8795 107.518 63.8795 109.952H66.7711C66.7711 104.289 71.3976 99.6627 77.0602 99.6627V96.7711C73.3012 96.7711 69.8795 98.3615 67.4699 100.94Z" fill="#446BD0"></path><path d="M56.2651 74.5542C56.2651 85.8795 49.0602 87.5422 48.747 87.5904L48.7711 87.7349C47.253 86.6988 45.4699 86 43.5422 85.7349C36.7229 84.7711 30.3855 89.5422 29.4217 96.3615C29.2771 97.3735 29.253 98.4096 29.3735 99.3976L29.0602 98.6988C24.5542 100.627 21.6386 105.06 21.6386 109.952H24.5301C24.5301 106.361 26.5783 103.108 29.7831 101.542C30.5301 104.12 32.0723 106.434 34.2892 108.072L36.0241 105.759C33.2289 103.663 31.7831 100.193 32.2892 96.747C33.0361 91.494 37.9036 87.8313 43.1325 88.5783C48.3855 89.3253 52.0482 94.1928 51.3012 99.4217L54.1687 99.8313C54.6988 96.0482 53.4699 92.4337 51.1325 89.7831C52.0482 89.3735 53.2048 88.6747 54.3615 87.6145C56.5542 85.5663 59.1566 81.6627 59.1566 74.5301H56.2651V74.5542Z" fill="#446BD0"></path><path d="M105.855 98.6988L105.542 99.3976C105.639 98.3855 105.639 97.3735 105.494 96.3615C104.53 89.5422 98.1928 84.7711 91.3735 85.7349C89.4217 86 87.6627 86.7229 86.1446 87.759L86.1687 87.6145C86.0964 87.5904 78.6747 86.0241 78.6747 74.5783H75.7831C75.7831 81.6868 78.3855 85.6145 80.5783 87.6627C81.7349 88.7229 82.8916 89.3976 83.8072 89.8313C81.4458 92.4819 80.2169 96.0964 80.7711 99.8795L83.6386 99.4699C82.8916 94.2169 86.5542 89.3494 91.8072 88.6265C97.0602 87.8795 101.928 91.5422 102.651 96.7952C103.133 100.265 101.711 103.711 98.9157 105.807L100.651 108.12C102.867 106.458 104.41 104.145 105.157 101.59C108.361 103.157 110.41 106.41 110.41 110H113.301C113.277 105.036 110.361 100.627 105.855 98.6988Z" fill="#446BD0"></path><path d="M134.771 72.6024L128.627 65.1325V58.8916C128.627 58.8434 128.627 58.7952 128.627 58.747C127.542 50.1446 122.458 46 120.867 44.8916C120.627 44.5542 120.217 44.3374 119.807 44.3615C119.783 44.3615 119.759 44.3615 119.735 44.3615C119.663 44.3615 119.084 44.3855 118.747 44.8916C117.133 46 112.048 50.1446 110.988 58.747C110.988 58.7952 110.988 58.8434 110.988 58.8916V65.1325L104.843 72.6024C104.675 72.8193 104.578 73.0843 104.578 73.3735V83.253C104.578 83.7108 104.843 84.1446 105.277 84.3373C105.687 84.5301 106.217 84.4578 106.554 84.1687L112.964 78.8434H114.217L113.566 81.0121C113.446 81.3735 113.518 81.7831 113.759 82.0723C113.976 82.3855 114.337 82.5542 114.723 82.5542H115.06C114.554 83.3735 112.988 86.0964 112.988 88.9398C112.988 92.3855 118.434 97.1325 119.06 97.6386C119.277 97.8313 119.566 97.9277 119.831 97.9277H119.928C120.217 97.9277 120.482 97.8313 120.699 97.6386C121.325 97.1084 126.771 92.3855 126.771 88.9398C126.771 86.0964 125.229 83.3735 124.699 82.5542H125.036C125.711 82.5542 126.241 82.0241 126.241 81.3494C126.241 81.2048 126.217 81.0602 126.169 80.9398L125.542 78.8434H126.795L133.205 84.1687C133.566 84.4578 134.072 84.5301 134.482 84.3373C134.892 84.1446 135.181 83.7108 135.181 83.253V73.3735C135.036 73.0843 134.94 72.8193 134.771 72.6024ZM132.627 73.8072V80.6988L128.627 77.3494V68.9157L132.627 73.8072ZM123.301 80.1687H122.602V78.8675H122.916L123.301 80.1687ZM121.373 64.1205H118.145C117.47 64.1205 116.94 64.6506 116.94 65.3253V76.4578H113.325V58.988C114.241 51.9277 118.024 48.3855 119.759 47.1084C121.494 48.3855 125.277 51.9518 126.193 58.988V76.4578H122.578V65.3253C122.578 64.6506 122.048 64.1205 121.373 64.1205ZM120.169 81.9277C120.096 81.9759 120.024 82.0241 119.976 82.0723H119.566C119.494 82.0241 119.446 81.9759 119.373 81.9277V66.506H120.193V81.9277H120.169ZM119.783 89.8313C118.916 88.9398 118.337 88.0482 118.313 87.6145C118.265 86.747 118.578 85.7108 119.277 84.4819H120.241C120.94 85.7108 121.253 86.7229 121.205 87.6145C121.181 88.4096 120.554 89.0602 119.783 89.8313ZM116.386 84.9639C116.024 85.9518 115.855 86.8675 115.904 87.7349C116.024 89.7831 118.53 92 119.036 92.4337C119.518 92.8434 120.265 92.7952 120.699 92.3374C120.892 92.1205 121.108 91.9036 121.349 91.6868C122.386 90.6747 123.566 89.5181 123.663 87.7349C123.711 86.8675 123.542 85.9277 123.181 84.9398C123.687 85.9518 124.289 87.4699 124.289 88.9639C124.289 90.4096 122 93.1566 119.807 95.1807C117.614 93.1566 115.325 90.4096 115.325 88.9639C115.301 87.4699 115.88 85.9759 116.386 84.9639ZM116.627 78.8675H116.94V80.1687H116.241L116.627 78.8675ZM110.916 68.9157V77.3494L106.892 80.6747V73.7831L110.916 68.9157Z" fill="#446BD0"></path><path d="M124.626 56.9157C124.626 54.241 122.458 52.0482 119.759 52.0482C117.06 52.0482 114.892 54.2169 114.892 56.9157C114.892 59.6145 117.06 61.7831 119.759 61.7831C122.458 61.7831 124.626 59.6145 124.626 56.9157ZM119.759 59.3735C118.41 59.3735 117.301 58.2651 117.301 56.9157C117.301 55.5663 118.41 54.4578 119.759 54.4578C121.108 54.4578 122.217 55.5663 122.217 56.9157C122.217 58.2651 121.133 59.3735 119.759 59.3735Z" fill="#446BD0"></path><path d="M20 82.5783H20.3374C21.012 82.5783 21.5422 82.0482 21.5422 81.3735C21.5422 81.2289 21.5181 81.0843 21.4699 80.9639L20.8434 78.8675H22.0723L28.4819 84.1928C28.8434 84.4819 29.3494 84.5542 29.759 84.3615C30.1687 84.1687 30.4578 83.7349 30.4578 83.2771V73.3976C30.4578 73.1084 30.3614 72.8434 30.1928 72.6265L24.0482 65.1566V58.9157C24.0482 58.8675 24.0482 58.8193 24.0482 58.7711C22.9639 50.1687 17.8795 46.0241 16.2892 44.9157C16.0482 44.5783 15.6386 44.3614 15.2289 44.3855C15.2048 44.3855 15.1807 44.3855 15.1566 44.3855C15.0843 44.3855 14.506 44.4096 14.1687 44.9157C12.5542 46.0241 7.46988 50.1687 6.40964 58.7711C6.40964 58.8193 6.40964 58.8675 6.40964 58.9157V65.1566L0.26506 72.6265C0.0963856 72.8434 0 73.1084 0 73.3976V83.2771C0 83.7349 0.26506 84.1687 0.698795 84.3615C1.10843 84.5542 1.63855 84.4819 1.9759 84.1928L8.38554 78.8675H9.63855L8.98795 81.0361C8.86747 81.3976 8.93976 81.8072 9.18072 82.0964C9.39759 82.4096 9.75904 82.5783 10.1446 82.5783H10.4819C9.9759 83.3976 8.40964 86.1205 8.40964 88.9639C8.40964 92.4096 13.8554 97.1566 14.4819 97.6627C14.6988 97.8554 14.988 97.9518 15.253 97.9518H15.3494C15.6386 97.9518 15.9036 97.8554 16.1205 97.6627C16.747 97.1325 22.1928 92.4096 22.1928 88.9639C22.0723 86.0964 20.506 83.3976 20 82.5783ZM18.6988 80.1687H18V78.8675H18.3133L18.6988 80.1687ZM16.7952 64.1205H13.5663C12.8916 64.1205 12.3614 64.6506 12.3614 65.3253V76.4578H8.74699V58.988C9.66265 51.9277 13.4458 48.3855 15.1807 47.1084C16.9157 48.3855 20.6988 51.9518 21.6145 58.988V76.4578H18V65.3253C18 64.6506 17.4458 64.1205 16.7952 64.1205ZM15.5904 81.9277C15.5181 81.9759 15.4458 82.0241 15.3976 82.0723H14.988C14.9157 82.0241 14.8675 81.9759 14.7952 81.9277V66.506H15.6145V81.9277H15.5904ZM14.6988 84.4819H15.6627C16.3614 85.7108 16.6747 86.7229 16.6265 87.6145C16.5783 88.4096 15.9518 89.0843 15.1807 89.8313C14.3133 88.9398 13.7349 88.0482 13.7108 87.6145C13.6627 86.747 14 85.7108 14.6988 84.4819ZM11.7831 84.988C11.4217 85.9518 11.253 86.8675 11.3012 87.7349C11.4217 89.7831 13.9277 92 14.4337 92.4337C14.9157 92.8434 15.6627 92.7952 16.0964 92.3374C16.2892 92.1205 16.506 91.9036 16.747 91.6868C17.7831 90.6747 18.9639 89.5181 19.0602 87.7349C19.1084 86.8675 18.9398 85.9277 18.5783 84.9398C19.0843 85.9518 19.6867 87.4699 19.6867 88.9639C19.6867 90.4096 17.3976 93.1566 15.2048 95.1807C13.012 93.1566 10.7229 90.4096 10.7229 88.9639C10.6988 87.494 11.2771 86 11.7831 84.988ZM12.0482 78.8675H12.3614V80.1687H11.6627L12.0482 78.8675ZM24.0241 77.3494V68.9157L28.0482 73.8072V80.6988L24.0241 77.3494ZM6.33735 68.9157V77.3494L2.31325 80.6747V73.7831L6.33735 68.9157Z" fill="#446BD0"></path><path d="M20.0482 56.9157C20.0482 54.241 17.8795 52.0482 15.1807 52.0482C12.506 52.0482 10.3133 54.2169 10.3133 56.9157C10.3133 59.6145 12.4819 61.7831 15.1807 61.7831C17.8554 61.7831 20.0482 59.6145 20.0482 56.9157ZM17.6386 56.9157C17.6386 58.2651 16.5301 59.3735 15.1807 59.3735C13.8313 59.3735 12.7229 58.2651 12.7229 56.9157C12.7229 55.5663 13.8313 54.4578 15.1807 54.4578C16.5301 54.4578 17.6386 55.5663 17.6386 56.9157Z" fill="#446BD0"></path></svg>